<svg width="246" height="155" viewBox="0 0 246 155" fill="none" xmlns="http://www.w3.org/2000/svg">
<path d="M6 124V30.9091H31.2727V103.636H68.9091V124H6Z" fill="#7CACFF"/>
<path d="M56 124V30.9091H123.091V51.2727H81.2727V67.2727H119.636V87.6364H81.2727V103.636H122.909V124H56Z" fill="#5F99FF"/>
<path d="M124.182 124H96.9091L127.636 30.9091H162.182L192.909 124H165.636L145.273 56.5455H144.545L124.182 124ZM119.091 87.2727H170.364V106.182H119.091V87.2727Z" fill="#337DFF"/>
<path d="M168 124V30.9091H208.182C215.091 30.9091 221.136 32.2727 226.318 35C231.5 37.7273 235.53 41.5606 238.409 46.5C241.288 51.4394 242.727 57.2121 242.727 63.8182C242.727 70.4848 241.242 76.2576 238.273 81.1364C235.333 86.0152 231.197 89.7727 225.864 92.4091C220.561 95.0455 214.364 96.3636 207.273 96.3636H183.273V76.7273H202.182C205.152 76.7273 207.682 76.2121 209.773 75.1818C211.894 74.1212 213.515 72.6212 214.636 70.6818C215.788 68.7424 216.364 66.4545 216.364 63.8182C216.364 61.1515 215.788 58.8788 214.636 57C213.515 55.0909 211.894 53.6364 209.773 52.6364C207.682 51.6061 205.152 51.0909 202.182 51.0909H193.273V124H168Z" fill="#005DFF"/>
</svg>
